<svg width="18" height="12" viewBox="0 0 18 12" fill="none" xmlns="http://www.w3.org/2000/svg">
<path d="M9.0448 0C9.0448 0 9.0448 0 8.9552 0C8.9552 0 8.9552 0 8.86561 0C5.10434 0 1.61186 2.85 0 5.7V6.15C0 6.15 1.21367e-08 6.225 0.0895928 6.3C1.70145 9.225 5.19394 12 8.9552 12H9.13439C12.8957 12 16.3881 9.225 18 6.3V5.7C16.2986 2.85 12.8061 0 9.0448 0ZM9.13765 10.5H8.95358C6.10697 10.425 3.26036 8.25 1.79186 6C3.16914 3.75 6.01575 1.575 8.86235 1.5H9.04643C11.893 1.575 14.7388 3.75 16.2081 6C14.7388 8.25 11.9843 10.425 9.13765 10.5Z" fill="#DADDE2"/>
<path d="M8.95928 3C7.16009 3 5.70136 4.34325 5.70136 6C5.70136 7.65675 7.16009 9 8.95928 9C10.7585 9 12.2172 7.65675 12.2172 6C12.2172 4.34325 10.7585 3 8.95928 3ZM8.95928 7.5C8.06009 7.5 7.33032 6.828 7.33032 6C7.33032 5.172 8.06009 4.5 8.95928 4.5C9.85846 4.5 10.5882 5.172 10.5882 6C10.5882 6.828 9.85846 7.5 8.95928 7.5Z" fill="#DADDE2"/>
</svg>
