<svg width="146" height="14" viewBox="0 0 146 14" fill="none" xmlns="http://www.w3.org/2000/svg">
<path d="M6.03566 0.232044C7.27068 0.232044 8.3397 0.431859 9.24273 0.831491C10.159 1.23112 10.8629 1.79834 11.3542 2.53315C11.8456 3.26796 12.0912 4.13812 12.0912 5.14365C12.0912 6.13628 11.8456 7.00645 11.3542 7.75414C10.8629 8.48895 10.159 9.05617 9.24273 9.4558C8.3397 9.84254 7.27068 10.0359 6.03566 10.0359H3.22699V13.768H0V0.232044H6.03566ZM5.85638 7.48343C6.82581 7.48343 7.56284 7.28361 8.06747 6.88398C8.5721 6.47146 8.82442 5.89135 8.82442 5.14365C8.82442 4.38306 8.5721 3.80295 8.06747 3.40332C7.56284 2.99079 6.82581 2.78453 5.85638 2.78453H3.22699V7.48343H5.85638Z" fill="#383E48"/>
<path d="M31.2471 13.768L28.558 9.99724H28.3986H25.5899V13.768H22.3629V0.232044H28.3986C29.6336 0.232044 30.7027 0.431859 31.6057 0.831491C32.522 1.23112 33.2258 1.79834 33.7172 2.53315C34.2085 3.26796 34.4542 4.13812 34.4542 5.14365C34.4542 6.14917 34.2019 7.01934 33.6972 7.75414C33.2059 8.47606 32.5021 9.03039 31.5858 9.41713L34.7131 13.768H31.2471ZM31.1874 5.14365C31.1874 4.38306 30.935 3.80295 30.4304 3.40332C29.9258 2.99079 29.1888 2.78453 28.2193 2.78453H25.5899V7.50276H28.2193C29.1888 7.50276 29.9258 7.2965 30.4304 6.88398C30.935 6.47146 31.1874 5.89135 31.1874 5.14365Z" fill="#383E48"/>
<path d="M51.7315 14C50.2841 14 48.976 13.6971 47.8074 13.0912C46.652 12.4853 45.7424 11.6538 45.0784 10.5967C44.4277 9.5267 44.1023 8.32781 44.1023 7C44.1023 5.67219 44.4277 4.47974 45.0784 3.42265C45.7424 2.35267 46.652 1.51473 47.8074 0.90884C48.976 0.302947 50.2841 0 51.7315 0C53.179 0 54.4805 0.302947 55.6358 0.90884C56.7911 1.51473 57.7008 2.35267 58.3648 3.42265C59.0288 4.47974 59.3608 5.67219 59.3608 7C59.3608 8.32781 59.0288 9.5267 58.3648 10.5967C57.7008 11.6538 56.7911 12.4853 55.6358 13.0912C54.4805 13.6971 53.179 14 51.7315 14ZM51.7315 11.3315C52.5549 11.3315 53.2986 11.151 53.9626 10.7901C54.6265 10.4162 55.1445 9.90055 55.5163 9.24309C55.9014 8.58564 56.094 7.83794 56.094 7C56.094 6.16206 55.9014 5.41436 55.5163 4.75691C55.1445 4.09945 54.6265 3.59024 53.9626 3.22928C53.2986 2.85543 52.5549 2.66851 51.7315 2.66851C50.9082 2.66851 50.1645 2.85543 49.5005 3.22928C48.8366 3.59024 48.312 4.09945 47.9269 4.75691C47.5551 5.41436 47.3691 6.16206 47.3691 7C47.3691 7.83794 47.5551 8.58564 47.9269 9.24309C48.312 9.90055 48.8366 10.4162 49.5005 10.7901C50.1645 11.151 50.9082 11.3315 51.7315 11.3315Z" fill="#383E48"/>
<path d="M78.7423 10.8674H72.2684L71.0334 13.768H67.7267L73.9417 0.232044H77.1288L83.3637 13.768H79.9773L78.7423 10.8674ZM77.7264 8.48895L75.5153 3.30663L73.3042 8.48895H77.7264Z" fill="#383E48"/>
<path d="M97.3597 14C96.2575 14 95.1885 13.8582 94.1527 13.5746C93.1301 13.2781 92.3068 12.8978 91.6826 12.4337L92.7782 10.0746C93.3758 10.5 94.0863 10.8416 94.9096 11.0994C95.733 11.3573 96.5563 11.4862 97.3797 11.4862C98.296 11.4862 98.9732 11.3573 99.4115 11.0994C99.8497 10.8287 100.069 10.4742 100.069 10.0359C100.069 9.71363 99.936 9.44936 99.6704 9.24309C99.4181 9.02394 99.0861 8.84991 98.6744 8.72099C98.276 8.59208 97.7316 8.45028 97.041 8.29558C95.9786 8.05064 95.1088 7.80571 94.4315 7.56077C93.7543 7.31584 93.17 6.92265 92.6786 6.38122C92.2005 5.83978 91.9615 5.11786 91.9615 4.21547C91.9615 3.4291 92.1806 2.72007 92.6189 2.0884C93.0571 1.44383 93.7144 0.934622 94.5909 0.560773C95.4807 0.186924 96.563 0 97.8378 0C98.7276 0 99.5974 0.10313 100.447 0.309392C101.297 0.515653 102.041 0.812154 102.678 1.19889L101.682 3.57735C100.394 2.86832 99.106 2.51381 97.8179 2.51381C96.9149 2.51381 96.2442 2.65562 95.806 2.93923C95.3811 3.22284 95.1686 3.59668 95.1686 4.06077C95.1686 4.52486 95.4143 4.87293 95.9056 5.10497C96.4102 5.32413 97.1738 5.54328 98.1964 5.76243C99.2587 6.00737 100.129 6.2523 100.806 6.49724C101.483 6.74217 102.061 7.12891 102.539 7.65746C103.03 8.186 103.276 8.90147 103.276 9.80387C103.276 10.5773 103.05 11.2864 102.599 11.9309C102.16 12.5626 101.496 13.0654 100.607 13.4392C99.7169 13.8131 98.6346 14 97.3597 14Z" fill="#383E48"/>
<path d="M119.484 0.232044C120.719 0.232044 121.788 0.431859 122.691 0.831491C123.608 1.23112 124.312 1.79834 124.803 2.53315C125.294 3.26796 125.54 4.13812 125.54 5.14365C125.54 6.13628 125.294 7.00645 124.803 7.75414C124.312 8.48895 123.608 9.05617 122.691 9.4558C121.788 9.84254 120.719 10.0359 119.484 10.0359H116.676V13.768H113.449V0.232044H119.484ZM119.305 7.48343C120.275 7.48343 121.012 7.28361 121.516 6.88398C122.021 6.47146 122.273 5.89135 122.273 5.14365C122.273 4.38306 122.021 3.80295 121.516 3.40332C121.012 2.99079 120.275 2.78453 119.305 2.78453H116.676V7.48343H119.305Z" fill="#383E48"/>
<path d="M138.311 2.78453H133.849V0.232044H146V2.78453H141.538V13.768H138.311V2.78453Z" fill="#383E48"/>
</svg>
