<svg width="14" height="16" viewBox="0 0 14 16" fill="none" xmlns="http://www.w3.org/2000/svg">
<path d="M13.2374 10.5877C12.6571 9.62048 11.7953 9.05805 10.7849 8.96525C10.6651 8.94765 9.70839 8.76924 9.49993 7.906C9.94251 7.37237 10.6262 6.35232 10.8129 4.64903C10.8837 3.9962 10.9389 2.35292 9.92151 1.17686C9.24481 0.39602 8.26164 0 6.99691 0C5.73295 0 4.75056 0.39522 4.07541 1.17526C3.0588 2.35052 3.11403 3.9962 3.18559 4.64983C3.28515 5.55708 3.59628 6.83874 4.49933 7.9724C4.2932 8.82524 3.3466 8.98365 3.25326 8.99725C2.20009 9.09486 1.33671 9.65728 0.758012 10.6245C-0.0236976 11.9286 -0.112369 13.7551 0.0984201 14.3095C0.513776 15.4296 2.83712 15.9992 7.00391 16C7.04202 16 7.07935 15.9968 7.11436 15.9912C13.2801 15.9736 13.7499 14.7079 13.9016 14.2951C14.114 13.7343 14.0222 11.8982 13.2374 10.5877ZM12.4634 13.6583C12.2355 13.8143 11.1124 14.3911 6.99924 14.3927H6.99846C6.96035 14.3927 6.92301 14.3951 6.88646 14.4023C3.00902 14.3895 1.82596 13.8431 1.54905 13.6695C1.53039 13.2535 1.61284 12.0878 2.1892 11.2918C2.49722 10.8669 2.89079 10.6365 3.41582 10.5861C4.30876 10.4765 6.0153 9.74129 6.0853 7.74279C6.0923 7.52838 6.01763 7.32037 5.87451 7.16436C5.0718 6.28671 4.80656 5.21466 4.72567 4.46982C4.68756 4.12661 4.61367 2.95375 5.23126 2.24091C5.59916 1.81449 6.1942 1.59848 6.99768 1.59848C7.80273 1.59848 8.39776 1.81529 8.76722 2.24171C9.38559 2.95615 9.31014 4.12661 9.27281 4.46902C9.10402 6.0187 8.41643 6.77074 8.12241 7.09155C7.98007 7.24756 7.90462 7.45557 7.91162 7.66998C7.9824 9.65968 9.67883 10.4221 10.6029 10.5533C11.1046 10.5997 11.4974 10.8285 11.8054 11.2534C12.4121 12.091 12.4798 13.3343 12.4634 13.6583Z" fill="#383E48"/>
</svg>
